<svg version="1.1" xmlns="http://www.w3.org/2000/svg" xmlns:xlink="http://www.w3.org/1999/xlink" width="346" height="261.42573" viewBox="0,0,346,261.42573"><g transform="translate(-147,-49.84123)"><g stroke="none" stroke-miterlimit="10"><path d="M147.36117,311.26696l-0.36117,-261.42573h345.63883l0.36117,261.42573z" fill="#ececec" stroke-width="0"/><path d="M333.94123,189.64999c-0.5225,1.20709 -1.14097,2.3182 -1.85756,3.33976c-0.97676,1.39263 -1.77651,2.3566 -2.39285,2.89189c-0.95544,0.87866 -1.97911,1.32865 -3.0753,1.35424c-0.78695,0 -1.73599,-0.22393 -2.84071,-0.67819c-1.10834,-0.45212 -2.12691,-0.67605 -3.05824,-0.67605c-0.97676,0 -2.02432,0.22392 -3.14483,0.67605c-1.12221,0.45426 -2.02625,0.69098 -2.71744,0.71444c-1.05119,0.04478 -2.09896,-0.418 -3.14483,-1.3905c-0.66752,-0.58222 -1.50246,-1.58031 -2.50268,-2.99427c-1.07316,-1.50992 -1.95543,-3.26084 -2.64663,-5.25702c-0.74025,-2.15613 -1.11133,-4.244 -1.11133,-6.26534c0,-2.31544 0.50032,-4.31247 1.50246,-5.98596c0.7876,-1.34421 1.83537,-2.40458 3.14674,-3.183c1.31137,-0.77842 2.72831,-1.1751 4.25424,-1.20048c0.83494,0 1.92985,0.25826 3.29049,0.76584c1.3568,0.50928 2.228,0.76754 2.60996,0.76754c0.28556,0 1.25337,-0.30198 2.89402,-0.90403c1.55152,-0.55834 2.86097,-0.78951 3.9337,-0.69845c2.90683,0.23459 5.09067,1.38048 6.54302,3.44489c-2.59972,1.57518 -3.88572,3.78143 -3.86012,6.61168c0.02346,2.20453 0.82321,4.03905 2.39498,5.49566c0.71231,0.67605 1.50779,1.19855 2.39285,1.56964c-0.19194,0.55663 -0.39454,1.08978 -0.60994,1.60162zM327.27452,163.4161c0,1.7279 -0.63127,3.34124 -1.88954,4.83454c-1.51846,1.77523 -3.35511,2.80104 -5.3468,2.63917c-0.02537,-0.2073 -0.04009,-0.42547 -0.04009,-0.65473c0,-1.65878 0.72212,-3.43401 2.00449,-4.88551c0.64022,-0.73491 1.45448,-1.34598 2.4419,-1.83346c0.98529,-0.48019 1.91727,-0.74574 2.79379,-0.79122c0.02559,0.23099 0.03626,0.462 0.03626,0.69118z" fill="#b3b3b3" stroke-width="1"/></g></g></svg>